PathFileType	4	(X/Y/Z)	C:\Users\Basilio\Documents\Thesis Gigler\squatting_fais\c3dfiles\075\SJ_pre2\markers_experimental.trc
DataRate	CameraRate	NumFrames	NumMarkers	Units	OrigDataRate	OrigDataStartFrame	OrigNumFrames
200.000000	200.000000	4	61	mm	200.000000	423	1695
Frame#	Time	FHD			LBHD			C7			T10			CLAV			LSHO			LUUPA			LMUPA			LDUPA			LLEP			LMEP			LRAD			LUL			LRFIN			RSHO			RUPA1			RMUPA			RDUPA			RLEP			RMEP			RRAD			RUL			RUFIN			LASI			RASI			USACR			LSACR			RSACR			LTHI1			LTHI2			LTHI3			LTHI4			LLFC			LMFC			LTIB1			LTIB2			LTIB3			LTIB4			LLMAL			LMMAL			LHEE			LMT1			LMT2			LMT5			RTHI			RTHI2			RTHI3			RTHI4			RLFC			RMFC			RTIB1			RTIB2			RTIB3			RTIB4			RLMAL			RMMAL			RHEE			RMT1			RMT2			RMT5			RBHD			
		X1	Y1	Z1	X2	Y2	Z2	X3	Y3	Z3	X4	Y4	Z4	X5	Y5	Z5	X6	Y6	Z6	X7	Y7	Z7	X8	Y8	Z8	X9	Y9	Z9	X10	Y10	Z10	X11	Y11	Z11	X12	Y12	Z12	X13	Y13	Z13	X14	Y14	Z14	X15	Y15	Z15	X16	Y16	Z16	X17	Y17	Z17	X18	Y18	Z18	X19	Y19	Z19	X20	Y20	Z20	X21	Y21	Z21	X22	Y22	Z22	X23	Y23	Z23	X24	Y24	Z24	X25	Y25	Z25	X26	Y26	Z26	X27	Y27	Z27	X28	Y28	Z28	X29	Y29	Z29	X30	Y30	Z30	X31	Y31	Z31	X32	Y32	Z32	X33	Y33	Z33	X34	Y34	Z34	X35	Y35	Z35	X36	Y36	Z36	X37	Y37	Z37	X38	Y38	Z38	X39	Y39	Z39	X40	Y40	Z40	X41	Y41	Z41	X42	Y42	Z42	X43	Y43	Z43	X44	Y44	Z44	X45	Y45	Z45	X46	Y46	Z46	X47	Y47	Z47	X48	Y48	Z48	X49	Y49	Z49	X50	Y50	Z50	X51	Y51	Z51	X52	Y52	Z52	X53	Y53	Z53	X54	Y54	Z54	X55	Y55	Z55	X56	Y56	Z56	X57	Y57	Z57	X58	Y58	Z58	X59	Y59	Z59	X60	Y60	Z60	X61	Y61	Z61	

424	2.115	-179.8672180175782	1688.523315429688	-918.535339355469	-338.2101135253907	1572.966552734375	-959.8615722656252	-371.3907165527344	1460.6806640625	-910.8937988281252	-404.8644409179689	1135.633911132813	-910.9841918945315	-232.6752929687501	1392.064819335938	-908.6098632812502	-273.3154296875001	1428.98583984375	-1066.730834960938	-321.6222839355469	1285.599975585938	-1232.614868164063	-288.3906250000001	1248.904907226563	-1225.604370117188	-319.1975402832032	1228.048950195313	-1273.047607421875	-314.3029785156251	1144.255249023438	-1301.542846679688	-393.8237304687501	1133.3916015625	-1254.414794921875	-285.8018188476563	967.1911621093752	-1126.122192382813	-247.5022735595704	927.7412719726565	-1178.328491210938	-243.2478485107422	949.1439208984377	-1082.14599609375	-274.6231384277344	1428.140625	-747.5253906250001	-332.4217529296876	1283.6376953125	-589.5555419921876	-302.9644775390626	1243.2568359375	-592.6443481445314	-340.9803466796876	1225.672119140625	-548.9384155273439	-340.7977905273438	1157.352783203125	-521.9136352539064	-413.9889221191407	1128.778930664063	-554.9390869140626	-245.8576202392579	941.5386352539065	-638.1770019531251	-288.0847778320313	966.194030761719	-696.5894165039064	-230.3919982910157	957.6101074218752	-736.9609985351564	-234.8248291015626	944.2302856445315	-1034.788452148438	-231.2101745605469	960.1936035156252	-782.8128662109377	-391.1377258300782	1036.4990234375	-911.9976806640627	-398.1439514160157	1004.166870117188	-938.5478515625002	-397.0413818359376	1007.059509277344	-881.2959594726565	-307.6314392089844	720.2504272460939	-1112.023315429688	-283.1268310546876	639.6509399414064	-1113.380981445313	-236.0580139160157	641.5094604492189	-1097.541625976563	-313.4288635253907	588.5076904296876	-1103.705444335938	-323.0104370117188	480.733123779297	-1093.75634765625	-275.0531921386719	462.8599853515626	-981.6770019531252	-278.0311584472657	354.1272583007813	-1077.569213867188	-343.6007080078126	321.4118652343751	-1123.466796875	-300.9537658691407	311.3453674316407	-1107.427490234375	-307.2391357421876	229.8368072509766	-1084.045166015625	-394.2416076660157	95.42032623291017	-1101.51318359375	-354.3936157226563	100.3596954345703	-1024.99853515625	-441.5909118652345	50.18905639648439	-1055.458618164063	-228.406478881836	51.7373390197754	-1069.779052734375	-235.7841491699219	56.53199386596681	-1117.8408203125	-282.4886474609376	42.53073501586915	-1165.23046875	-306.3861389160157	775.8457641601565	-705.1983032226564	-270.3544311523438	721.1683349609376	-703.7192382812501	-238.9220886230469	725.3968505859376	-714.6315307617189	-301.7670898437501	641.1529541015626	-708.1163330078126	-319.6960449218751	486.9134826660157	-731.4584350585939	-276.7861938476563	467.787322998047	-849.5693969726565	-275.6119079589844	333.5764160156251	-777.6002197265627	-334.7846374511719	263.5512390136719	-717.2516479492189	-295.8704528808594	254.5016326904297	-744.4412841796876	-304.9412841796876	206.8376464843751	-777.3687133789065	-383.3232421875001	91.69227600097658	-738.6901855468751	-343.8471374511719	108.0270690917969	-816.912048339844	-425.7843322753907	49.3222122192383	-797.2735595703127	-218.0223236083985	58.15671539306642	-764.2944946289064	-226.8914642333985	57.74762344360353	-723.5662231445314	-268.9985351562501	35.61887359619141	-676.3889770507814	-271.6128234863282	1606.739990234375	-814.2419433593752	
425	2.12	-178.8147277832032	1687.796630859375	-918.2054443359377	-337.6426086425782	1573.187744140625	-960.2009277343752	-371.1775207519532	1460.671752929688	-910.8554687500002	-404.8577575683595	1135.637329101563	-910.9852294921877	-232.1483459472657	1391.85009765625	-908.253356933594	-273.1226806640626	1428.90869140625	-1066.656372070313	-321.5030212402344	1285.535888671875	-1232.58251953125	-288.3553161621094	1248.8564453125	-1225.574951171875	-319.1671752929688	1228.033081054688	-1273.042846679688	-314.3218383789063	1144.232299804688	-1301.547973632813	-393.8847045898439	1133.4638671875	-1254.383422851563	-285.9357604980469	967.1315917968752	-1126.108276367188	-247.6563415527344	927.6868896484377	-1178.27978515625	-243.471664428711	949.1312255859377	-1082.176391601563	-274.5110168457032	1428.037963867188	-747.5618896484376	-332.2972106933594	1283.648193359375	-589.5036621093751	-302.8320922851563	1243.211791992188	-592.6307373046876	-340.8833923339844	1225.6865234375	-548.8809204101564	-340.7322998046876	1157.357421875	-521.8618164062501	-413.9229431152345	1128.85107421875	-554.8375854492189	-246.0509338378907	941.5018310546877	-638.1944580078126	-288.3399658203126	966.0634765625002	-696.5397338867189	-230.6441192626954	957.5188598632815	-736.9364624023439	-235.0110015869141	944.2230224609377	-1034.75439453125	-231.5258483886719	960.0841064453127	-782.786560058594	-391.3068237304689	1036.539794921875	-911.9842529296877	-398.2795410156251	1004.162841796875	-938.609558105469	-397.1738586425782	1007.078186035156	-881.3298339843752	-307.7658996582032	720.1192626953126	-1111.975341796875	-283.0973815917969	639.7031860351564	-1113.57080078125	-235.8682861328126	641.8008422851564	-1098.195068359375	-313.2935180664063	588.5110473632814	-1103.925415039063	-322.8270568847657	480.7077636718751	-1093.897216796875	-274.6646423339844	462.8501281738282	-981.891784667969	-277.7352294921876	354.0587768554688	-1077.702392578125	-343.3241882324219	321.4135437011719	-1123.639526367188	-300.7618408203126	311.2759704589844	-1107.495483398438	-307.8444213867188	229.862777709961	-1084.645751953125	-394.1569213867189	95.41138458251955	-1101.509033203125	-354.3383789062501	100.3730850219727	-1025.025756835938	-441.5287170410157	50.18483734130861	-1055.452392578125	-228.3975982666016	51.72847747802736	-1069.823364257813	-235.8220825195313	56.54440307617189	-1117.9033203125	-282.5234375000001	42.5478858947754	-1165.251953125	-306.4508972167969	775.7783203125002	-705.1386718750001	-270.3923034667969	721.0782470703126	-703.4586791992189	-238.8585510253907	725.4155883789064	-714.5335693359376	-301.6481323242188	641.0473632812501	-708.0331420898439	-319.2964172363282	486.8854980468751	-731.2690429687501	-276.2729187011719	467.7363281250001	-849.4009399414065	-275.3955078125001	333.4580993652344	-777.590026855469	-334.5459289550782	263.5127868652344	-717.1327514648439	-295.6087036132813	254.436019897461	-744.3919677734376	-305.1524047851563	206.9556579589844	-777.6279907226565	-383.3100891113282	91.71859741210939	-738.6830444335939	-343.8778076171876	107.9112854003907	-816.9855957031252	-425.7543945312501	49.30869293212892	-797.316833496094	-217.9981842041016	58.15582275390626	-764.3227539062501	-226.8763427734376	57.64115142822267	-723.5558471679689	-268.9962158203126	35.63118743896485	-676.3878173828126	-271.5360107421876	1606.794677734375	-814.194030761719	
426	2.125	-177.7179718017578	1687.25146484375	-917.8421630859377	-336.8580017089844	1573.388549804688	-960.3811645507815	-371.0142822265626	1460.66015625	-910.8742675781252	-404.9412841796876	1135.5419921875	-911.008972167969	-232.0016479492188	1391.780395507813	-908.2587890625002	-272.8875427246094	1428.851928710938	-1066.614990234375	-321.4390258789063	1285.557495117188	-1232.56494140625	-287.6165466308594	1248.659423828125	-1225.31787109375	-319.1213073730469	1228.02978515625	-1273.01025390625	-314.3029785156251	1144.228637695313	-1301.4521484375	-393.8952941894532	1133.4794921875	-1254.379272460938	-286.2297973632813	967.0607910156252	-1126.098876953125	-247.9000549316407	927.6087646484377	-1178.254272460938	-243.6446838378907	949.0939941406252	-1082.19873046875	-274.3304748535157	1428.033813476563	-747.4763183593751	-332.1337585449219	1283.69580078125	-589.4372558593751	-302.8000488281251	1243.170043945313	-592.6435546875001	-340.7645263671876	1225.710083007813	-548.8300781250001	-340.6766967773438	1157.364135742188	-521.8157348632814	-413.9364318847657	1128.868286132813	-554.7387084960939	-246.2768249511719	941.4568481445315	-638.1835937500001	-288.6091918945313	965.958923339844	-696.4987182617189	-230.9070892333985	957.467468261719	-736.9264526367189	-235.0584716796876	944.1456298828127	-1034.767578125	-231.7889404296876	959.9947509765627	-782.7730712890627	-391.4518127441407	1036.521850585938	-911.9577636718752	-398.4825439453126	1004.164794921875	-938.605651855469	-397.3892822265626	1007.091857910156	-881.323181152344	-307.8065490722657	720.1677246093751	-1112.058471679688	-283.0396118164063	639.7001342773439	-1113.736572265625	-235.7678222656251	641.8034667968751	-1098.289672851563	-313.1723327636719	588.4372558593751	-1103.98046875	-322.3666381835938	480.6454467773439	-1094.115234375	-274.2898864746094	462.7142333984376	-982.1164550781252	-277.4793395996094	353.9583129882813	-1077.860473632813	-343.0264282226563	321.3594970703126	-1123.75146484375	-300.4297790527344	311.2479553222657	-1107.68017578125	-306.8725585937501	229.7527160644532	-1084.131591796875	-394.2938537597657	95.49477386474611	-1101.514770507813	-354.3010253906251	100.3698806762696	-1025.016723632813	-441.5302124023439	50.23069381713869	-1055.437133789063	-228.3999176025391	51.65454101562501	-1069.808471679688	-235.8157196044922	56.55053710937501	-1117.852661132813	-282.5582580566407	42.5605812072754	-1165.251586914063	-306.5725402832032	775.7060546875002	-705.0886840820314	-270.3063964843751	721.1253662109376	-703.2814941406251	-238.8821411132813	725.4488525390626	-714.3833618164064	-301.5242919921876	640.9636230468751	-707.9077148437501	-318.8609619140626	486.777557373047	-731.0840454101564	-276.0360107421876	467.5943298339845	-849.2605590820315	-274.9762268066407	333.3229980468751	-777.3956298828127	-334.2549438476563	263.4960632324219	-716.9796752929689	-295.4192504882813	254.3081970214844	-744.3740844726564	-304.5305480957032	206.7346649169922	-777.2462158203127	-383.2161254882813	91.7280731201172	-738.6527709960939	-343.8186950683594	108.0298233032227	-817.015808105469	-425.8854064941407	49.3329315185547	-797.2590332031252	-217.9836883544922	58.17734146118165	-764.3164672851564	-226.8421630859376	57.69871520996095	-723.5484008789064	-268.9941711425782	35.61017227172852	-676.3897094726564	-271.4943237304688	1606.879272460938	-814.1113891601565	
427	2.13	-176.4270782470703	1686.408447265625	-917.409851074219	-336.1316833496094	1573.684204101563	-960.6733398437502	-370.8561706542969	1460.632568359375	-910.824890136719	-405.0064086914064	1135.554809570313	-910.9836425781252	-231.8604736328126	1391.655883789063	-908.1721801757815	-272.7261047363282	1428.839599609375	-1066.546752929688	-321.4308471679688	1285.547119140625	-1232.523803710938	-288.2826538085938	1248.758422851563	-1225.51171875	-319.1895141601563	1228.027465820313	-1273.003784179688	-314.3446960449219	1144.177001953125	-1301.470947265625	-393.956756591797	1133.501708984375	-1254.377075195313	-286.5192871093751	966.9552001953127	-1126.1455078125	-248.0913848876954	927.5311279296877	-1178.26123046875	-243.8242645263672	949.031677246094	-1082.126220703125	-274.1544494628907	1428.00634765625	-747.4075927734376	-332.0480041503907	1283.64599609375	-589.3985595703126	-302.6222839355469	1243.192260742188	-592.4923706054689	-340.6969909667969	1225.640869140625	-548.7854003906251	-340.6684570312501	1157.341796875	-521.7882690429689	-413.921356201172	1129.029663085938	-554.6468505859376	-246.5119018554688	941.3283691406252	-638.1983032226564	-288.8353576660157	965.8718261718752	-696.4910888671876	-231.0774841308594	957.4012451171877	-736.9931030273439	-235.2406463623047	944.0586547851565	-1034.734008789063	-232.0932159423829	959.9475708007815	-782.7915649414065	-391.533416748047	1036.52001953125	-912.033142089844	-398.636199951172	1004.235778808594	-938.5847167968752	-397.6936340332032	1007.101013183594	-881.3330078125002	-307.8858642578126	720.1389770507814	-1112.146850585938	-282.9670410156251	639.7155151367189	-1113.9638671875	-235.9865417480469	641.5967407226564	-1098.020751953125	-313.1090698242188	588.3558959960939	-1104.130004882813	-321.8956909179688	480.5720214843751	-1094.372802734375	-273.6239318847657	462.7630920410157	-982.3323364257815	-277.1536865234376	353.8528442382813	-1077.986083984375	-342.7545471191407	321.2537536621094	-1123.947875976563	-300.0714416503907	311.1585388183594	-1107.859497070313	-306.7824707031251	229.6991424560547	-1084.254760742188	-394.0705566406251	95.46367645263673	-1101.52490234375	-354.2742004394532	100.3583679199219	-1025.033081054688	-441.5483398437501	50.25636291503908	-1055.380126953125	-228.3793334960938	51.66054534912111	-1069.802856445313	-235.8263244628907	56.52961730957033	-1117.917724609375	-282.5539245605469	42.56381225585938	-1165.2568359375	-306.7471618652344	775.5906372070315	-705.0304565429689	-270.4022521972657	721.0646972656251	-703.1194458007814	-238.8584899902344	725.5625000000001	-714.2249145507814	-301.3554382324219	640.8864746093751	-707.7348632812501	-318.4324951171876	486.6426086425782	-730.8939208984376	-275.2094726562501	467.5895996093751	-848.972106933594	-274.6883239746094	333.2661132812501	-777.2962646484377	-333.9910888671876	263.3591308593751	-716.9139404296876	-295.9801330566407	254.1346435546876	-744.8364257812501	-304.3618774414063	206.8463745117188	-777.246276855469	-383.1924438476563	91.74658203125001	-738.6231079101564	-343.7536010742188	107.9679565429688	-816.9109497070315	-425.7865600585939	49.36389541625978	-797.2783203125002	-217.9946746826172	58.13505935668947	-764.3335571289064	-226.7989654541016	57.72286605834962	-723.5595703125001	-269.0012817382813	35.59400939941407	-676.4124755859376	-271.3912048339844	1607.014526367188	-814.0283203125002	
